<svg width="20" height="20" viewBox="0 0 20 20" fill="none" xmlns="http://www.w3.org/2000/svg">
    <circle cx="10" cy="10" r="10" fill="#828282"/>
    <path d="M10.9162 10.0107L14.81 6.11673C15.0634 5.86345 15.0634 5.45393 14.81 5.20064C14.5567 4.94736 14.1472 4.94736 13.8939 5.20064L9.99996 9.09456L6.10614 5.20064C5.85274 4.94736 5.44334 4.94736 5.19005 5.20064C4.93665 5.45393 4.93665 5.86345 5.19005 6.11673L9.08386 10.0107L5.19005 13.9046C4.93665 14.1579 4.93665 14.5674 5.19005 14.8207C5.31628 14.947 5.48225 15.0105 5.6481 15.0105C5.81395 15.0105 5.9798 14.947 6.10614 14.8207L9.99996 10.9267L13.8939 14.8207C14.0202 14.947 14.1861 15.0105 14.3519 15.0105C14.5178 15.0105 14.6836 14.947 14.81 14.8207C15.0634 14.5674 15.0634 14.1579 14.81 13.9046L10.9162 10.0107Z" fill="white" stroke="white" stroke-width="0.5"/>
</svg>