<svg width="16" height="16" viewBox="0 0 16 16" fill="none" xmlns="http://www.w3.org/2000/svg">
    <path d="M1.89932 11.0807C0.681798 9.86313 -0.00219728 8.21182 -0.00219727 6.48998C-0.00219725 4.76815 0.681799 3.11684 1.89932 1.89932C3.11684 0.681799 4.76815 -0.00219725 6.48999 -0.00219727C8.21182 -0.00219728 9.86313 0.681798 11.0807 1.89932C12.1017 2.90474 12.7537 4.22524 12.9311 5.64719C13.1086 7.06914 12.8011 8.50936 12.0584 9.73487C12.0286 9.78584 12.0161 9.8451 12.0229 9.90376C12.0296 9.96242 12.0552 10.0173 12.0958 10.0602L15.4078 13.3722C15.5686 13.4968 15.7026 13.6526 15.8018 13.8302C15.901 14.0078 15.9633 14.2036 15.9849 14.4059C16.0066 14.6082 15.9872 14.8128 15.9279 15.0074C15.8686 15.202 15.7706 15.3826 15.6398 15.5384L15.5393 15.6389C15.3836 15.7697 15.203 15.8678 15.0084 15.9272C14.8138 15.9865 14.6093 16.006 14.407 15.9844C14.2047 15.9629 14.0089 15.9007 13.8312 15.8016C13.6536 15.7025 13.4977 15.5685 13.3731 15.4078L10.0673 12.102C10.0244 12.0593 9.96861 12.0318 9.90858 12.0238C9.84855 12.0158 9.78754 12.0276 9.73488 12.0575C8.50946 12.8003 7.06929 13.1079 5.64735 12.9307C4.2254 12.7534 2.90485 12.1016 1.89932 11.0807ZM9.88243 9.88243C10.5543 9.21138 11.0121 8.35611 11.1978 7.42484C11.3835 6.49356 11.2887 5.52814 10.9256 4.65071C10.5625 3.77327 9.94727 3.02326 9.15779 2.49557C8.3683 1.96787 7.44004 1.68621 6.49043 1.68621C5.54083 1.68621 4.61256 1.96787 3.82307 2.49557C3.03359 3.02326 2.41836 3.77327 2.05524 4.65071C1.69211 5.52814 1.59741 6.49356 1.7831 7.42484C1.96879 8.35611 2.42654 9.21138 3.09843 9.88243C3.99855 10.7812 5.21861 11.2859 6.49061 11.2858C7.76262 11.2856 8.98255 10.7805 9.88243 9.88154V9.88243Z" fill="#828282"/>
</svg>
